<?xml version="1.0" encoding="UTF-8" standalone="no"?>
<!-- Created with Inkscape (http://www.inkscape.org/) -->

<svg
   xmlns:dc="http://purl.org/dc/elements/1.1/"
   xmlns:cc="http://creativecommons.org/ns#"
   xmlns:rdf="http://www.w3.org/1999/02/22-rdf-syntax-ns#"
   xmlns:svg="http://www.w3.org/2000/svg"
   xmlns="http://www.w3.org/2000/svg"
   xmlns:sodipodi="http://sodipodi.sourceforge.net/DTD/sodipodi-0.dtd"
   xmlns:inkscape="http://www.inkscape.org/namespaces/inkscape"
   width="395"
   height="395"
   id="svg2"
   version="1.1"
   inkscape:version="0.48.4 r9939"
   sodipodi:docname="bg.svg"
   inkscape:export-filename="/home/martino/git/Vector/VectorGE/resources/2048/bg.png"
   inkscape:export-xdpi="90"
   inkscape:export-ydpi="90">
  <defs
     id="defs4" />
  <sodipodi:namedview
     id="base"
     pagecolor="#ffffff"
     bordercolor="#666666"
     borderopacity="1.0"
     inkscape:pageopacity="0.0"
     inkscape:pageshadow="2"
     inkscape:zoom="0.49497475"
     inkscape:cx="295.36091"
     inkscape:cy="-238.0394"
     inkscape:document-units="px"
     inkscape:current-layer="layer1"
     showgrid="false"
     inkscape:window-width="1920"
     inkscape:window-height="1134"
     inkscape:window-x="1600"
     inkscape:window-y="27"
     inkscape:window-maximized="1" />
  <metadata
     id="metadata7">
    <rdf:RDF>
      <cc:Work
         rdf:about="">
        <dc:format>image/svg+xml</dc:format>
        <dc:type
           rdf:resource="http://purl.org/dc/dcmitype/StillImage" />
        <dc:title></dc:title>
      </cc:Work>
    </rdf:RDF>
  </metadata>
  <g
     inkscape:label="Layer 1"
     inkscape:groupmode="layer"
     id="layer1"
     transform="translate(0,-657.36218)">
    <path
       style="fill:#decd87"
       d="M 0 0 L 0 395 L 395 395 L 395 0 L 0 0 z M 32.1875 15 L 77.8125 15 C 87.326117 15 95 22.67388 95 32.1875 L 95 77.8125 C 95 87.32612 87.326117 95 77.8125 95 L 32.1875 95 C 22.673883 95 15 87.32612 15 77.8125 L 15 32.1875 C 15 22.67388 22.673883 15 32.1875 15 z M 127.1875 15 L 172.8125 15 C 182.32611 15 190 22.67388 190 32.1875 L 190 77.8125 C 190 87.32612 182.32611 95 172.8125 95 L 127.1875 95 C 117.67389 95 110 87.32612 110 77.8125 L 110 32.1875 C 110 22.67388 117.67389 15 127.1875 15 z M 222.1875 15 L 267.8125 15 C 277.32611 15 285 22.67388 285 32.1875 L 285 77.8125 C 285 87.32612 277.32611 95 267.8125 95 L 222.1875 95 C 212.67389 95 205 87.32612 205 77.8125 L 205 32.1875 C 205 22.67388 212.67389 15 222.1875 15 z M 317.1875 15 L 362.8125 15 C 372.32611 15 380 22.67388 380 32.1875 L 380 77.8125 C 380 87.32612 372.32611 95 362.8125 95 L 317.1875 95 C 307.67389 95 300 87.32612 300 77.8125 L 300 32.1875 C 300 22.67388 307.67389 15 317.1875 15 z M 32.1875 110 L 77.8125 110 C 87.326117 110 95 117.67388 95 127.1875 L 95 172.8125 C 95 182.32612 87.326117 190 77.8125 190 L 32.1875 190 C 22.673883 190 15 182.32612 15 172.8125 L 15 127.1875 C 15 117.67388 22.673883 110 32.1875 110 z M 127.1875 110 L 172.8125 110 C 182.32611 110 190 117.67388 190 127.1875 L 190 172.8125 C 190 182.32612 182.32611 190 172.8125 190 L 127.1875 190 C 117.67389 190 110 182.32612 110 172.8125 L 110 127.1875 C 110 117.67388 117.67389 110 127.1875 110 z M 222.1875 110 L 267.8125 110 C 277.32611 110 285 117.67388 285 127.1875 L 285 172.8125 C 285 182.32612 277.32611 190 267.8125 190 L 222.1875 190 C 212.67389 190 205 182.32612 205 172.8125 L 205 127.1875 C 205 117.67388 212.67389 110 222.1875 110 z M 317.1875 110 L 362.8125 110 C 372.32611 110 380 117.67388 380 127.1875 L 380 172.8125 C 380 182.32612 372.32611 190 362.8125 190 L 317.1875 190 C 307.67389 190 300 182.32612 300 172.8125 L 300 127.1875 C 300 117.67388 307.67389 110 317.1875 110 z M 32.1875 205 L 77.8125 205 C 87.326117 205 95 212.67388 95 222.1875 L 95 267.8125 C 95 277.32612 87.326117 285 77.8125 285 L 32.1875 285 C 22.673883 285 15 277.32612 15 267.8125 L 15 222.1875 C 15 212.67388 22.673883 205 32.1875 205 z M 127.1875 205 L 172.8125 205 C 182.32611 205 190 212.67388 190 222.1875 L 190 267.8125 C 190 277.32612 182.32611 285 172.8125 285 L 127.1875 285 C 117.67389 285 110 277.32612 110 267.8125 L 110 222.1875 C 110 212.67388 117.67389 205 127.1875 205 z M 222.1875 205 L 267.8125 205 C 277.32611 205 285 212.67388 285 222.1875 L 285 267.8125 C 285 277.32612 277.32611 285 267.8125 285 L 222.1875 285 C 212.67389 285 205 277.32612 205 267.8125 L 205 222.1875 C 205 212.67388 212.67389 205 222.1875 205 z M 317.1875 205 L 362.8125 205 C 372.32611 205 380 212.67388 380 222.1875 L 380 267.8125 C 380 277.32612 372.32611 285 362.8125 285 L 317.1875 285 C 307.67389 285 300 277.32612 300 267.8125 L 300 222.1875 C 300 212.67388 307.67389 205 317.1875 205 z M 32.1875 300 L 77.8125 300 C 87.326117 300 95 307.67388 95 317.1875 L 95 362.8125 C 95 372.3261 87.326117 380 77.8125 380 L 32.1875 380 C 22.673883 380 15 372.3261 15 362.8125 L 15 317.1875 C 15 307.67388 22.673883 300 32.1875 300 z M 127.1875 300 L 172.8125 300 C 182.32611 300 190 307.67388 190 317.1875 L 190 362.8125 C 190 372.3261 182.32611 380 172.8125 380 L 127.1875 380 C 117.67389 380 110 372.3261 110 362.8125 L 110 317.1875 C 110 307.67388 117.67389 300 127.1875 300 z M 222.1875 300 L 267.8125 300 C 277.32611 300 285 307.67388 285 317.1875 L 285 362.8125 C 285 372.3261 277.32611 380 267.8125 380 L 222.1875 380 C 212.67389 380 205 372.3261 205 362.8125 L 205 317.1875 C 205 307.67388 212.67389 300 222.1875 300 z M 317.1875 300 L 362.8125 300 C 372.32611 300 380 307.67388 380 317.1875 L 380 362.8125 C 380 372.3261 372.32611 380 362.8125 380 L 317.1875 380 C 307.67389 380 300 372.3261 300 362.8125 L 300 317.1875 C 300 307.67388 307.67389 300 317.1875 300 z "
       transform="translate(0,657.36218)"
       id="rect2985" />
    <path
       id="path3040"
       d="m -181.39883,957.36218 45.65481,0 c 9.51361,0 17.17259,7.65898 17.17259,17.1726 l 0,45.65482 c 0,9.5136 -7.65898,17.1726 -17.17259,17.1726 l -45.65481,0 c -9.51362,0 -17.1726,-7.659 -17.1726,-17.1726 l 0,-45.65482 c 0,-9.51362 7.65898,-17.1726 17.1726,-17.1726 z"
       style="fill:#cccccc"
       inkscape:connector-curvature="0" />
  </g>
</svg>
